<?xml version="1.0" encoding="UTF-8" standalone="no"?>
<!-- Created with Inkscape (http://www.inkscape.org/) -->

<svg
   xmlns:dc="http://purl.org/dc/elements/1.1/"
   xmlns:cc="http://creativecommons.org/ns#"
   xmlns:rdf="http://www.w3.org/1999/02/22-rdf-syntax-ns#"
   xmlns:svg="http://www.w3.org/2000/svg"
   xmlns="http://www.w3.org/2000/svg"
   xmlns:sodipodi="http://sodipodi.sourceforge.net/DTD/sodipodi-0.dtd"
   xmlns:inkscape="http://www.inkscape.org/namespaces/inkscape"
   width="300"
   height="300"
   viewBox="0 0 79.374998 79.375002"
   version="1.1"
   id="svg6199"
   inkscape:version="0.92.1 r15371"
   sodipodi:docname="logo.svg">
  <defs
     id="defs6193" />
  <sodipodi:namedview
     id="base"
     pagecolor="#ffffff"
     bordercolor="#666666"
     borderopacity="1.0"
     inkscape:pageopacity="0.0"
     inkscape:pageshadow="2"
     inkscape:zoom="1.979899"
     inkscape:cx="226.13554"
     inkscape:cy="145.51402"
     inkscape:document-units="mm"
     inkscape:current-layer="layer1"
     showgrid="false"
     units="px"
     inkscape:window-width="1920"
     inkscape:window-height="1021"
     inkscape:window-x="0"
     inkscape:window-y="0"
     inkscape:window-maximized="1" />
  <metadata
     id="metadata6196">
    <rdf:RDF>
      <cc:Work
         rdf:about="">
        <dc:format>image/svg+xml</dc:format>
        <dc:type
           rdf:resource="http://purl.org/dc/dcmitype/StillImage" />
        <dc:title></dc:title>
      </cc:Work>
    </rdf:RDF>
  </metadata>
  <g
     inkscape:label="Capa 1"
     inkscape:groupmode="layer"
     id="layer1"
     transform="translate(0,-217.62498)">
    <g
       transform="translate(-0.42559891,-24.556548)"
       id="layer1-5"
       inkscape:label="Capa 1">
      <path
         d="M 91.603516,5.0390625 80.785156,8.0527344 C 74.835443,9.7100572 69.709971,11.323081 69.394531,11.638672 69.079088,11.954149 68.639298,21.09129 68.417969,31.941406 l -0.402344,19.726563 3.539063,11.560547 3.537109,11.5625 -3.402344,10.833984 -3.400391,10.835938 -0.01562,38.103512 c -0.0084,20.95699 0.249493,42.40997 0.572265,47.67383 l 0.585938,9.57031 21.853515,-0.0234 21.85351,-0.0215 0.6836,-4.54687 c 0.37613,-2.50046 0.39433,-17.14689 0.041,-32.54688 -0.6188,-26.97245 -0.0944,-44.88437 1.28906,-44.0293 0.36378,0.22481 5.98803,9.21071 12.49805,19.96876 l 11.83594,19.56054 14.10742,-0.0156 14.10547,-0.0137 7.67383,-13.23632 c 10.71884,-18.48802 16.14617,-28.75031 15.53125,-29.36524 -0.28847,-0.28845 -2.45875,3.19546 -4.82422,7.74219 l -4.30078,8.26758 -1.85742,-4.25781 c -5.65634,-12.97119 -10.53443,-25.123051 -10.08399,-25.123051 3.20459,0 22.1731,9.666991 22.39258,11.412111 0.14438,1.14826 0.15788,15.81291 0.0293,32.58789 -0.1286,16.77502 0.0696,35.49197 0.4414,41.59375 l 0.67578,11.09375 21.60938,0.62695 c 11.8844,0.34545 21.75086,0.48163 21.92578,0.30664 1.48605,-1.48607 1.35114,-127.214178 -0.14649,-136.574216 -1.61666,-10.104038 -1.28843,-24.056704 0.97071,-41.316406 l 0.49219,-3.767579 -22.6543,0.267579 -22.65625,0.269531 -9.43945,18 c -5.19106,9.899981 -11.82033,23.4 -14.73243,30 l -5.29492,12 1.50391,8.287109 c 1.74855,9.642217 2.1312,8.829184 -4.43946,9.431641 l -5.18359,0.474609 3.99609,-7.949219 c 2.19856,-4.372686 3.78221,-8.16701 3.51954,-8.429687 -0.26268,-0.262677 -2.42794,3.271443 -4.8125,7.853516 l -4.33594,8.332031 -5.4668,-0.300781 c -6.77447,-0.372964 -6.33782,0.270515 -5.33594,-7.855469 l 0.84375,-6.84375 4.36329,7.283203 c 2.39993,4.005694 4.57493,7.071398 4.83398,6.8125 0.58511,-0.585109 -7.89935,-14.792382 -16.81445,-28.154297 -5.07977,-7.613594 -7.24801,-11.989342 -8.91602,-18 -1.21204,-4.36766 -4.90256,-13.188989 -8.20117,-19.601563 L 113.00977,10.349609 102.30664,7.6953125 Z m 3.361328,2.6015625 c 1.264314,0.068896 3.411717,0.5817083 6.832036,1.40625 4.36019,1.051162 7.22991,2.174773 6.40234,2.505859 -0.825,0.329878 -3.75,1.273871 -6.5,2.097657 -6.532757,1.957001 -6.167084,2.055058 -7.521486,-2.048829 -0.976398,-2.9584951 -1.32008,-4.0757634 0.78711,-3.960937 z m -6.416016,0.2636719 c 3.226743,-0.041917 3.650391,1.9623335 3.650391,6.8906251 0,1.418457 -0.13404,1.444012 -3.5,0.699219 -4.805995,-1.063446 -4.907442,-1.288206 -1.970703,-4.353516 3.630504,-3.7895811 2.053319,-3.8919931 -1.982422,-0.128906 -2.849685,2.657159 -3.339123,2.776781 -7.546875,1.865234 l -4.5,-0.974609 6.5,-1.902344 C 83.667842,8.6912299 86.612783,7.9294468 88.548828,7.9042969 Z M 197.0332,11.142578 c 1.11571,-0.0381 2.62433,0.06563 4.72071,0.121094 6.95365,0.184063 7.38014,0.318957 5.96484,1.882812 -0.83847,0.926514 -1.30626,1.902646 -1.04102,2.167969 0.26526,0.265247 -3.63127,5.402851 -8.6582,11.417969 -5.65047,6.761197 -8.89358,9.983062 -8.49414,8.4375 0.35538,-1.374992 0.65222,-3.492303 0.66016,-4.705078 0.01,-1.576177 2.3142,-3.95698 8.08203,-8.347656 4.43802,-3.378369 7.85085,-6.362072 7.58398,-6.628907 -0.26688,-0.266872 -3.39392,1.802091 -6.95117,4.597657 -7.86937,6.184477 -7.67126,6.175319 -6.53516,0.333984 1.51198,-7.773988 1.32086,-9.163039 4.66797,-9.277344 z m 38.57422,0.560547 c 0.35975,0.02419 0.58033,0.130074 0.57617,0.310547 -0.008,0.360983 -0.60963,2.648268 -1.33789,5.083984 l -1.32422,4.429688 -0.6621,-3.304688 c -0.99927,-4.996308 -0.83435,-5.775195 1.33984,-6.34375 0.55,-0.143811 1.04846,-0.19997 1.4082,-0.175781 z m -23.54687,0.06836 1.04687,2.449219 c 1.33992,3.138784 12.0918,32.119243 12.0918,32.591797 0,0.498369 -34.91317,-6.559202 -35.8457,-7.246094 -0.18997,-0.139918 3.64538,-4.922726 8.52343,-10.628906 4.87804,-5.706142 10.06593,-11.90218 11.52735,-13.769531 z m 14.36328,0.347657 c 4.8596,0.07786 3.99948,1.757258 1.76953,17.457031 -1.08648,7.649235 -2.11523,14.046718 -2.28516,14.216797 -0.2362,0.23622 -6.6897,-16.83682 -11.48047,-30.373047 -0.33041,-0.933657 1.6092,-1.25 7.66407,-1.25 1.78424,0 3.21058,-0.06875 4.33203,-0.05078 z M 109.82422,12.875 c 0.15114,-0.0108 0.28419,-0.01049 0.39844,0.002 1.17512,0.127995 0.46125,1.518106 -0.85352,4.865235 -2.31796,5.901088 -2.50544,5.959977 -8.40625,2.613281 -6.043213,-3.427427 -6.083222,-3.331959 2.48633,-5.8125 3.32712,-0.963082 5.31698,-1.592346 6.375,-1.667969 z m -39.625001,0.119141 4.25,0.703125 c 6.257461,1.035439 6.329498,1.304293 1.634765,6.08789 -5.621011,5.727383 -4.168938,5.666261 1.978516,-0.08398 4.649246,-4.3488 4.88134,-4.441866 8.625,-3.408203 l 3.847656,1.0625 -7.876953,3.425781 C 70.230345,26.185365 70.199219,26.181156 70.199219,19.015625 Z m 42.525391,0.320312 c 0.19219,-0.194872 2.40704,3.742655 4.92187,8.75 2.51484,5.007345 4.23052,9.07333 3.8125,9.035156 -0.41802,-0.03829 -3.52409,-1.627691 -6.90234,-3.53125 l -6.14258,-3.460937 1.98047,-5.21875 c 1.08923,-2.870627 2.13789,-5.379573 2.33008,-5.574219 z m 78.94727,2.855469 c 0.0915,0 -0.32081,2.439046 -0.91602,5.419922 -0.89693,4.491855 -6.55664,12.368364 -6.55664,9.125 0,-0.603818 7.16247,-14.544922 7.47266,-14.544922 z m -99.621099,2.035156 -2.46875,7.341797 -2.46875,7.341797 -6.61914,-2.402344 c -3.640094,-1.321285 -7.333466,-2.247633 -8.207032,-2.060547 -0.873562,0.187049 2.07594,1.576155 6.554688,3.087891 l 8.144531,2.748047 -1.623047,5.205078 c -0.892683,2.861934 -2.083464,5.533431 -2.644531,5.9375 -2.282944,1.64417 -3.518559,0.374301 -7.90625,-8.121094 -5.227041,-10.120516 -5.424795,-9.508846 4.386719,-13.646484 3.575002,-1.507616 7.929363,-3.345906 9.675781,-4.085938 z m 143.617189,1.783203 c 0.1949,0.07253 0.0849,1.787667 -0.17188,5.681641 -0.6028,9.141619 -0.82971,9.822111 -1.62109,4.873047 -0.41222,-2.577827 -0.14459,-5.570998 0.71289,-7.996094 0.59308,-1.677338 0.92849,-2.615006 1.08008,-2.558594 z M 93.230469,20.169922 c 0.292097,-7.56e-4 2.161083,3.824989 4.154297,8.5 1.993217,4.675011 3.331004,8.464584 2.970704,8.421875 -1.41584,-0.167509 -10.050313,-3.458366 -10.632814,-4.052735 -0.675273,-0.689044 2.644062,-12.866835 3.507813,-12.86914 z m 5.123047,0.279297 c 0.491346,0.03458 1.313561,0.465768 2.503904,1.109375 5.85185,3.164069 5.73504,2.91174 3.88086,8.49414 -2.22321,6.693468 -2.7327,6.488545 -5.267577,-2.11914 -1.683488,-5.716666 -2.198149,-7.560455 -1.117187,-7.484375 z m 132.250004,2.015625 c 0.17681,-0.02853 0.41836,0.125406 0.74023,0.447265 0.8583,0.858331 0.73219,2.4691 -0.50586,6.451172 -1.51829,4.883377 -1.61182,4.987863 -1.15625,1.306641 0.27227,-2.199988 0.49981,-5.103657 0.50586,-6.451172 0.005,-1.149118 0.12132,-1.706352 0.41602,-1.753906 z m -121.5879,4.019531 c 1.18741,0.08769 3.02013,1.079162 6.3125,2.833984 6.96031,3.709796 7.04551,3.485854 -2.28906,5.910157 -10.32262,2.680932 -9.77094,3.013711 -7.14648,-4.308594 1.13518,-3.167206 1.59639,-4.548296 3.12304,-4.435547 z m 80.13868,2.658203 -0.61524,3.263672 c -1.00557,5.334047 -1.717,6.109034 -3.65039,3.972656 -2.20065,-2.43171 -2.19289,-2.460844 1.28906,-5.035156 z m -118.902347,2.527344 3.974609,7.486328 c 2.185531,4.118249 3.972657,7.601462 3.972657,7.738281 0,0.136857 -1.628924,0.929354 -3.621094,1.761719 -4.875579,2.037165 -5.719878,1.913461 -5.009766,-0.736328 0.331624,-1.237493 0.62261,-5.399984 0.644532,-9.25 z M 231.9668,33.455078 c 0.67562,-0.04763 1.09195,2.221492 1.16211,6.744141 0.0647,4.170104 -0.17516,4.625089 -3.01563,5.697265 -2.75114,1.038426 -3.01594,0.980335 -2.43555,-0.53125 0.3581,-0.932598 1.38601,-4.336182 2.28321,-7.5625 0.79871,-2.872155 1.48038,-4.310607 2.00586,-4.347656 z m -108.63868,0.738281 c 0.51773,-0.0203 3.8711,11.615276 3.8711,13.431641 0,1.031169 -2.92587,-0.0659 -18.5,-6.9375 l -4,-1.765625 9,-2.351563 c 4.95,-1.293542 9.28328,-2.361835 9.6289,-2.376953 z m 58.42579,0.951172 1.68359,2.84961 1.68359,2.851562 -3.96093,2.224609 c -4.54289,2.553223 -4.70454,2.192165 -1.63868,-3.664062 z m -92.798832,0.02539 c 0.312457,0 2.977941,0.759512 5.921875,1.6875 l 5.351567,1.685547 -5.533208,2.251953 c -10.080301,4.101127 -9.642404,4.160641 -7.859374,-1.072266 0.853427,-2.504655 1.806687,-4.552734 2.11914,-4.552734 z m 13.126952,4.132812 13.1875,5.658204 13.1875,5.658203 6.75977,10.076171 6.75976,10.074219 -16.11523,4.939453 c -8.86375,2.716952 -15.45112,5.061647 -14.63867,5.210938 0.81244,0.149329 7.98636,-1.737536 15.9414,-4.19336 16.95252,-5.23351 15.19121,-5.695462 14.39063,3.775391 -0.39152,4.631736 -1.08531,7.627698 -1.75196,7.568359 -3.84861,-0.342424 -28.40373,-5.657028 -29.77148,-6.443359 -1.44072,-0.828283 -0.29895,-2.916033 8.34961,-15.275391 5.51018,-7.874417 9.80029,-14.535458 9.53516,-14.800781 -0.26513,-0.265134 -5.10888,6.178807 -10.76368,14.31836 -5.65479,8.139515 -10.44314,14.996391 -10.64062,15.238281 -0.19749,0.241814 -0.9741,-0.433191 -1.72656,-1.5 C 104.03269,78.540576 98.843336,72.08945 93.253906,65.271484 87.66448,58.453519 83.454442,52.539968 83.896484,52.128906 c 0.442039,-0.411061 4.713953,-3.465849 9.494141,-6.787109 z m 87.57422,1.867188 c 0.59425,0 27.37807,5.577178 31.54297,6.568359 2.00049,0.47607 0.10236,1.472438 -9.5,4.984375 -13.70937,5.014035 -12.95071,4.843893 -14.21289,3.197266 -1.80487,-2.35457 -8.38498,-14.75 -7.83008,-14.75 z m -4.33789,0.976562 -2.67774,3.511719 c -2.5731,3.373531 -4.77419,4.39924 -5.8164,2.712891 -0.27101,-0.438501 1.53063,-2.017041 4.00195,-3.509766 z m -90.699219,0.484375 c 0.945836,-0.112668 -0.670152,1.085178 -4.904297,3.896485 -6.388097,4.241461 -6.492309,4.272071 -5.804688,1.642578 0.287656,-1.099994 0.678653,-2 0.869141,-2 0.190492,0 2.612453,-0.894347 5.382812,-1.986328 2.39894,-0.945567 3.88953,-1.485133 4.457032,-1.552735 z m 91.166019,1.97461 c 2.27376,0.0673 6.69535,5.07087 9.24804,10.814453 0.54354,1.222942 -0.98541,0.761316 -7.63281,-2.300781 -6.75127,-3.109947 -7.03815,-4.073833 -2.44727,-8.228516 0.22548,-0.204057 0.50721,-0.29477 0.83204,-0.285156 z m 46.72461,2.089843 c 0.39583,0.05306 0.20728,0.506523 -0.30665,1.466797 -1.45118,2.711585 -2.60976,3.186446 -3.92187,1.605469 -0.91523,-1.10279 -0.53559,-1.59231 1.89453,-2.439453 1.05646,-0.368291 1.73761,-0.590403 2.12695,-0.630859 0.0811,-0.0084 0.15049,-0.0095 0.20704,-0.002 z M 82.376953,47.166016 c 0.121868,0.02479 0.234658,0.08231 0.333985,0.18164 0.2085,0.208517 0.0099,0.976751 -0.441407,1.707032 -0.531341,0.859841 -1.045696,0.962864 -1.460937,0.291015 -0.534174,-0.864307 0.715285,-2.353231 1.568359,-2.179687 z m -3.931641,1.566406 c 0.515284,0.0067 0.880277,0.322432 1.123047,0.955078 0.442318,1.152567 -0.257529,1.46395 -3.15039,1.402344 -2.045246,-0.04343 -3.043749,-0.329002 -2.21875,-0.634766 0.824999,-0.305877 2.242865,-0.936744 3.15039,-1.402344 0.42272,-0.216878 0.786534,-0.324344 1.095703,-0.320312 z m 155.056638,0.01953 c 0.31054,0.0878 0.46898,1.28818 0.80274,4 0.73645,5.983786 0.62728,6.181157 -1.57227,2.824219 -1.5109,-2.305928 -1.5627,-2.985876 -0.38672,-5.195313 0.58074,-1.091107 0.91473,-1.697193 1.15625,-1.628906 z m -57.22851,1 c 0.14692,-0.01796 0.28766,4.92e-4 0.42383,0.05273 2.02719,0.777939 2.11619,0.569403 -3.15821,7.361328 -5.93547,7.643187 -6.13885,7.538878 -1.85547,-0.966797 2.22627,-4.420781 3.56136,-6.32158 4.58985,-6.447266 z m 47.40429,0.267578 c 0.21226,-0.02202 0.39297,-0.02162 0.54493,0 1.21568,0.172994 0.60962,1.758438 -0.0859,5.001953 -1.05567,4.922344 -1.23997,5.140854 -4.26953,5.019532 -3.60765,-0.144416 -15.37967,-1.610929 -16.83985,-2.097657 -0.53296,-0.177637 4.12526,-2.181742 10.35157,-4.453125 5.76741,-2.103984 8.81305,-3.31654 10.29882,-3.470703 z m -43.98242,1.388672 c 0.10378,-0.142375 3.23733,1.123278 6.96289,2.8125 3.72556,1.68926 7.37223,2.841744 8.10547,2.560547 0.7729,-0.29658 1.13654,0.0047 0.86328,0.716797 -0.40942,1.066923 -28.42773,11.069206 -28.42773,10.148437 0,-0.190979 2.76989,-3.863577 6.1543,-8.162109 3.38441,-4.298532 6.23801,-7.933684 6.34179,-8.076172 z m 46.875,0.09375 c 0.1879,0.01 0.40406,0.530095 0.75586,1.480469 0.58257,1.573795 0.37144,3.255127 -0.66015,5.25 -1.6763,3.241587 -2.87857,3.917389 -2.10938,1.185547 0.271,-0.962533 0.81287,-3.324973 1.20313,-5.25 0.37446,-1.84714 0.56897,-2.678824 0.81054,-2.666016 z m -154.35156,0.94922 c 0.847761,-0.0086 2.057462,0.176319 3.685547,0.36914 l 5.085937,0.601563 -2.492187,9.123047 c -1.370857,5.017701 -2.609163,9.246059 -2.751953,9.396484 -0.142787,0.150388 -1.486846,-4.050129 -2.986328,-9.333984 -2.37826,-8.38046 -3.084298,-10.130552 -0.541016,-10.15625 z m 10.0625,1.625 7.234375,8.796875 c 3.978342,4.83772 8.962909,10.932437 11.078125,13.544922 2.11522,2.612523 3.45532,4.700278 2.97656,4.638672 -0.47875,-0.06153 -6.786068,-1.490049 -14.015622,-3.173829 l -13.144532,-3.060546 1.304688,-4.578125 c 0.717743,-2.517204 2.038544,-7.183365 2.935547,-10.371094 z m 147.66211,1.091797 c 0.86301,0 5.25586,5.39826 5.25586,6.458984 0,0.934035 -1.55365,0.59072 -3.20703,-0.708984 -1.82622,-1.435578 -3.36386,-5.75 -2.04883,-5.75 z m -1.35547,3.382812 c 0.3586,0.01588 0.61133,0.415498 0.61133,1.058594 0,0.857461 -0.45,1.558594 -1,1.558594 -0.55,0 -1,-0.423876 -1,-0.941407 0,-0.517529 0.45,-1.218814 1,-1.558593 0.1375,-0.08498 0.26914,-0.122482 0.38867,-0.117188 z m -23.88867,1.535157 5.5,0.533203 c 3.025,0.292573 6.9625,0.537236 8.75,0.541015 2.77667,0.0074 3.25,0.363751 3.25,2.449219 0,3.687156 -0.86657,3.680508 -9.51758,-0.06641 z m -6.50195,0.15625 c 0.002,-0.234142 2.47695,2.882442 5.50195,6.925781 3.025,4.043301 5.5,7.458695 5.5,7.589843 0,0.130999 -3.0375,1.964374 -6.75,4.074219 -8.42817,4.789758 -8.25,4.715362 -8.25,3.455078 0,-0.57634 0.89971,-5.677014 1.99805,-11.333984 1.09834,-5.657008 1.998,-10.476608 2,-10.710937 z m -1.49219,0.08594 c 0.17208,0.0086 0.24819,0.05197 0.2168,0.134766 -0.25126,0.6624 -1.25069,5.705071 -2.22071,11.205078 -0.97002,5.500006 -2.04656,10.538872 -2.39258,11.197265 -0.5856,1.114281 -25.12531,-11.273046 -25.09961,-12.669922 0.005,-0.289888 6.79598,-2.870034 15.08985,-5.732421 7.25713,-2.504622 13.20167,-4.194856 14.40625,-4.134766 z m 4.70508,0.117187 c 0.0327,-0.0051 0.075,0.0015 0.12695,0.02148 19.97455,7.664957 19.665,7.405123 19.64648,16.574219 -0.0208,10.385989 -0.7134,10.871217 -5.70507,3.99414 l -4.22266,-5.816406 4.51758,-2.646484 c 2.48418,-1.455837 4.30549,-2.856652 4.04883,-3.113282 -0.25668,-0.256667 -2.46603,0.704354 -4.91016,2.136719 l -4.44336,2.603516 -5.2207,-7.15625 c -2.69234,-3.690036 -4.32912,-6.52097 -3.83789,-6.597657 z m 26.82422,1.669922 c 1.08694,-0.06907 1.96484,0.351583 1.96484,1.384766 0,0.732737 -1.54175,1.804584 -3.42578,2.382812 -3.3734,1.035326 -3.40935,1.015283 -2.33985,-1.332031 0.66011,-1.448752 2.40327,-2.346738 3.80079,-2.435547 z M 234.5,64.585938 c 0.53772,-0.02211 0.55042,0.477126 0.1582,1.71289 -0.45227,1.42337 -0.31094,1.895667 0.4336,1.435547 0.74766,-0.462085 1.10742,0.796197 1.10742,3.875 0,5.533342 -0.67129,5.875466 -1.58594,0.808594 -0.37232,-2.062488 -1.05981,-4.492889 -1.52734,-5.400391 -0.58833,-1.142022 -0.37348,-1.833269 0.69726,-2.24414 0.30076,-0.115408 0.53756,-0.180131 0.7168,-0.1875 z m -4.21875,1.582031 c 1.52041,0 1.99632,3.901166 0.72461,5.9375 -1.65802,2.654929 -1.90156,2.617358 -5.18945,-0.814453 l -2.75782,-2.878907 3.22071,-1.121093 c 1.77057,-0.617235 3.57108,-1.123047 4.00195,-1.123047 z m -8.08203,3.539062 3.18359,3.183594 3.18555,3.183594 -2.68555,4.93164 c -3.73024,6.853682 -3.31982,7.757721 0.63672,1.404297 l 3.27344,-5.257812 3.38476,3.49414 c 1.86176,1.92087 3.19052,3.634358 2.95313,3.808594 -0.23741,0.174199 -2.94619,1.0796 -6.01953,2.013672 -8.23402,2.502425 -7.91211,2.835981 -7.91211,-8.199219 z m -56.66797,1.820313 c 0.092,-0.07778 5.67453,2.84754 12.4043,6.5 l 12.23633,6.640625 -4.23633,0.626953 c -2.32978,0.345033 -7.40379,0.943432 -11.27539,1.330078 l -7.03907,0.703125 -1.1289,-7.830078 c -0.6204,-4.306356 -1.05293,-7.892845 -0.96094,-7.970703 z m 67.20898,1.449218 c 0.49517,0.08528 0.95415,1.196076 1.84766,3.81836 1.98636,5.829657 1.73569,6.155948 -1.55859,2.027344 -2.20026,-2.757468 -2.40239,-3.518941 -1.32227,-4.996094 0.42551,-0.58191 0.7361,-0.900777 1.0332,-0.84961 z m -23.04101,3.210938 3.11719,3.628906 c 1.71398,1.995666 3.87704,4.916553 4.80664,6.490235 0.92955,1.573719 1.3264,2.812867 0.88281,2.753906 -2.72525,-0.361739 -21.6408,-3.836563 -22.57031,-4.146485 -0.62048,-0.206814 2.22331,-2.254756 6.31836,-4.550781 z M 77.207031,76.792969 c 3.489769,0.28314 25.065069,5.113886 25.789059,5.83789 0.32104,0.321033 -14.683004,5.53711 -15.927731,5.53711 -0.34374,0 -2.544111,-2.486424 -4.888671,-5.525391 -2.344566,-3.039005 -4.478566,-5.310308 -4.742188,-5.046875 -0.26363,0.263622 1.007921,2.412544 2.826172,4.775391 1.818255,2.362885 3.695508,4.818896 4.169922,5.457031 0.595695,0.801222 -0.776768,1.767859 -4.435547,3.123047 -10.661722,3.948964 -9.953264,4.481243 -6.939453,-5.222656 1.452782,-4.677695 3.119105,-8.696113 3.703125,-8.929688 0.06034,-0.02412 0.212661,-0.0247 0.445312,-0.0059 z m 27.955079,6.675781 -0.64258,2.599609 c -0.35398,1.430022 -1.81887,6.106481 -3.25391,10.392579 l -2.60937,7.792972 -5.371094,-7.06641 c -2.954608,-3.886413 -5.181067,-7.258235 -4.947265,-7.492188 0.233809,-0.2338 4.115184,-1.730266 8.625,-3.326171 z m 4.63477,0.890625 c 1.94259,0.01124 6.98975,0.72417 13.69921,1.96875 8.36209,1.551118 15.42124,2.826299 15.6875,2.830078 0.26627,0.0053 -2.65873,1.850514 -6.5,4.101563 v 0.002 c -13.51573,7.920194 -11.63311,7.955354 -17.74609,-0.339844 -2.94006,-3.989631 -5.63836,-7.740107 -5.99609,-8.333984 -0.0957,-0.158826 0.20793,-0.232262 0.85547,-0.228516 z m 126.75781,2.019531 c 0.1234,-0.0012 0.2043,0.01484 0.23633,0.04687 0.25621,0.256214 0.34057,6.9399 0.1875,14.853524 l -0.2793,14.38867 -7.15039,-12.5 -7.15039,-12.500006 6.96289,-2.353516 c 3.35082,-1.132942 6.32954,-1.926851 7.19336,-1.935547 z m -40.74024,0.16211 c 0.20009,0.0092 0.41191,0.03183 0.63477,0.06836 1.7875,0.293027 6.175,1.003145 9.75,1.578125 3.575,0.574942 7.82344,1.31086 9.4414,1.634766 l 2.94141,0.58789 -2.94141,1.548828 c -1.61796,0.850848 -7.05092,3.456553 -12.07421,5.791016 l -9.13282,4.244139 -0.60547,-3.664061 c -1.47281,-8.906705 -1.01494,-11.927726 1.98633,-11.789063 z m -4.1289,0.0625 c 0.16436,-0.02072 0.26126,-0.02192 0.2832,0 0.17556,0.175559 0.18722,3.716725 0.0254,7.86914 l -0.29492,7.550784 -10.4707,-4.482424 c -5.75912,-2.465008 -10.60242,-4.611989 -10.76172,-4.771485 -0.15933,-0.159307 4.54253,-1.683134 10.44726,-3.386719 5.16663,-1.490668 9.62094,-2.634223 10.77149,-2.779296 z m -85.4668,0.238281 c 0.48553,0.0058 1.7266,3.026591 2.87109,7.041015 1.22079,4.282054 2.4507,8.572658 2.73243,9.535158 0.44802,1.53078 -0.24776,1.75 -5.55469,1.75 -3.33706,0 -6.06836,-0.20279 -6.06836,-0.44922 0,-1.23874 5.29425,-17.158193 5.93164,-17.835938 0.0254,-0.027 0.0555,-0.04139 0.0879,-0.04102 z m 73.65039,0.746094 c 0.9255,-0.04913 -0.5418,0.575896 -3.66992,1.529297 -7.9147,2.41232 -8,2.417565 -8,0.550781 0,-1.075276 1.09722,-1.5 3.875,-1.5 2.13125,0 5.39375,-0.231783 7.25,-0.515625 0.23203,-0.03549 0.41271,-0.05743 0.54492,-0.06445 z m -70.40234,0.978515 c 0.20993,-0.209915 2.45962,2.506553 4.99804,6.035156 l 4.61524,6.414058 -2.40625,1.57618 c -1.32269,0.86664 -2.57558,1.57617 -2.78516,1.57617 -0.56907,0 -4.86528,-15.15815 -4.42187,-15.601564 z m 54.11523,0.601563 c 1.375,0 2.77726,0.450003 3.11719,1 0.34907,0.564812 -0.46883,1 -1.88086,1 -1.375,0 -2.77921,-0.450003 -3.11914,-1 -0.34907,-0.564813 0.47078,-1 1.88281,-1 z m -22.36523,1 h 4.43359 c 2.43753,0 4.6519,0.358084 4.92188,0.794922 0.26996,0.4368 -4.01651,5.002835 -9.52539,10.148439 l -10.01563,9.35547 5.09375,-10.14844 z m -54.5293,0.248047 c 0.08764,0.138935 2.311256,3.091382 4.941406,6.5625 5.996168,7.913424 6.34868,7.794034 -7.929687,2.685546 -6.90296,-2.469731 -11.36287,-4.543032 -10.5,-4.882812 3.863875,-1.521676 13.346209,-4.590494 13.488281,-4.365234 z m 52.67188,0.466796 -5.19336,10.392578 c -2.85743,5.7157 -5.25773,10.46184 -5.33204,10.54688 -0.0743,0.0849 -1.82263,-2.14303 -3.88476,-4.95118 l -3.74805,-5.10547 4.24805,-2.626948 c 2.33713,-1.444914 6.42331,-3.893879 9.08008,-5.441406 z m 16.6582,0.488282 c 0.31634,-0.0027 0.73994,0.07065 1.29297,0.185547 1.31429,0.27307 4.01636,0.75636 6.00586,1.074218 l 3.61718,0.578125 -3.37304,14.728516 c -1.8555,8.10127 -3.50219,15.12296 -3.65821,15.60156 -0.15603,0.4786 -1.10128,-5.14644 -2.10156,-12.5 -1.00029,-7.3536 -2.05764,-14.858544 -2.34961,-16.675779 -0.36858,-2.293937 -0.38262,-2.984029 0.56641,-2.992187 z m 64.72656,0.03906 c 0.69658,0.789506 4.61033,28.912906 4.17969,30.035156 -0.2835,0.73879 -2.30276,1.87897 -4.48633,2.53321 -4.17151,1.24989 -10.76538,1.38455 -15.61914,0.32031 -2.47703,-0.54312 -11.94268,-19.4317 -10.35938,-20.67188 0.90639,-0.70994 26.10454,-12.421646 26.28516,-12.216796 z m -67.57812,0.757813 c 0.31999,0 1.70339,7.874983 3.07421,17.500003 1.37084,9.62498 2.25857,17.46943 1.97461,17.43164 -1.46615,-0.19317 -27.85541,-13.51245 -27.69922,-13.98047 0.28949,-0.8674 22.00217,-20.951173 22.6504,-20.951173 z m 15.08593,4.001953 c 0.62369,-0.0013 11.44727,25.96916 11.44727,27.4668 0,0.53238 -3.375,1.51056 -7.5,2.17383 -9.16082,1.47303 -10.99604,1.57347 -11.01758,0.60742 -0.0427,-1.90318 6.58262,-30.247067 7.07031,-30.24805 z M 223.69531,96.5 c 0.50624,-0.05964 1.7977,2.167881 4.07617,6.16797 2.50627,4.40001 5.62625,9.83528 6.9336,12.07812 l 2.37695,4.07813 -4.94141,1.58008 c -2.71771,0.86921 -4.9431,1.28395 -4.94726,0.92187 -0.004,-0.36193 -0.90143,-5.8332 -1.99414,-12.1582 C 223.69039,100.4343 223.04444,96.576682 223.69531,96.5 Z m -153.208982,0.160156 13.337891,4.501954 13.335937,4.50195 -7.230468,3.6211 c -8.751568,4.38221 -11.381653,5.25685 -12.136719,4.03515 -0.316022,-0.51133 -2.089827,-4.46895 -3.941407,-8.79492 z m 0.333984,4.394534 c 0.03883,-0.0263 0.07915,0.0102 0.119141,0.11328 0.319896,0.82499 1.839086,4.31039 3.376953,7.74609 l 2.796875,6.24805 -2.908203,1.50195 c -1.598872,0.82681 -3.152754,1.50391 -3.455078,1.50391 -0.302298,0 -0.51413,-4.16249 -0.470703,-9.25 0.03799,-4.45157 0.269219,-7.67888 0.541015,-7.86328 z m 48.183598,2.00195 c 1.20023,-0.12515 2.18852,0.96511 4.11132,3.64258 1.7649,2.4576 3.06815,4.44833 2.89649,4.42187 -2.96136,-0.44757 -10.72583,-5.76539 -9.64453,-6.60547 1.12019,-0.87028 1.91658,-1.38389 2.63672,-1.45898 z m -11.4961,3.18164 c 1.63221,-0.0408 2.55054,0.34862 2.19141,0.92969 -0.33992,0.55 -0.70356,0.96824 -0.8086,0.92969 -3.76007,-1.3838 -4.06457,-1.7921 -1.38281,-1.85938 z m -8.808591,0.88672 1.310551,3.16211 c 0.72049,1.73892 0.94549,3.47537 0.5,3.85937 -0.4455,0.38404 -3.705857,2.88492 -7.244145,5.5586 l -6.433594,4.86133 5.933594,-8.72071 z m 3.515621,0.21484 c 0.14649,-0.0138 0.31389,-0.0111 0.50391,0.008 0.50671,0.0505 1.16891,0.21711 1.99414,0.49218 2.62152,0.87387 2.62632,0.89227 0.64258,2.6875 -1.93405,1.75019 -2.03426,1.73877 -3.1582,-0.36132 -0.97559,-1.82292 -1.00782,-2.72955 0.0176,-2.82618 z m 92.08204,0.32813 2.38085,6.18359 c 1.30921,3.40093 2.87807,7.11346 3.48633,8.25 1.02085,1.90734 0.8335,2.06641 -2.42968,2.06641 h -3.53516 l 0.0488,-8.25 z m -78.35352,0.26953 c 1.10475,0.0974 4.99313,1.8027 6.17187,2.85742 0.71503,0.6398 -1.31805,0.28528 -3.56445,-0.62109 -1.18122,-0.4766 -2.46756,-1.3836 -2.85937,-2.01758 -0.10904,-0.17643 -0.003,-0.24124 0.25195,-0.21875 z m -20.298829,0.47852 c 0.07627,-0.0132 0.123941,-0.0129 0.140625,0.004 0.193232,0.19321 -2.161831,3.92724 -5.232422,8.29883 -3.07059,4.37163 -5.915728,8.3099 -6.322265,8.75195 -0.406534,0.44206 -1.736373,-1.51272 -2.955078,-4.3457 -1.218709,-2.83294 -2.072233,-5.22286 -1.896485,-5.31055 7.493088,-3.74049 15.12153,-7.20035 16.265625,-7.39843 z m 14.445309,0.81836 c 1.44952,0.14392 2.07988,2.49693 1.99219,7.15234 -0.22059,11.71124 -0.92047,12.37029 -4.67187,4.39844 l -3.29102,-6.99219 2.45313,-2.45313 c 1.48294,-1.48294 2.64787,-2.19183 3.51757,-2.10546 z m 8.96289,2.59374 c 2.12756,-0.0245 8.5881,2.10588 9.33008,3.38477 0.46436,0.80039 2.6172,7.28726 4.78516,14.41602 2.16795,7.12875 3.84922,13.0399 3.73633,13.13476 -0.23347,0.19578 -18.04216,-29.18789 -18.50782,-30.53711 -0.0939,-0.272 0.16528,-0.39278 0.65625,-0.39844 z m 11.58985,3.5625 c 0.18906,-0.18904 6.53789,2.76021 14.10742,6.55274 l 13.76172,6.89453 -9.19336,9.65039 c -5.05635,5.30767 -9.37098,9.09554 -9.58789,8.41602 -3.47905,-10.89899 -9.34849,-31.25289 -9.08789,-31.51368 z m -29.67969,0.43555 c 0.72757,-0.11146 1.90301,1.91361 3.24609,5.61133 1.24469,3.42682 2.47541,6.79297 2.73438,7.48047 0.53051,1.40829 -1.32056,1.44119 -9.744141,0.17187 -3.024998,-0.45581 -6.962499,-0.94212 -8.75,-1.08007 -1.787498,-0.13807 -3.25,-0.32979 -3.25,-0.42579 0,-0.22492 14.141392,-10.81976 15.623051,-11.70507 0.0444,-0.0266 0.0921,-0.0453 0.14062,-0.0527 z m -24.552734,1.55078 c 1.302523,0.0103 2.104266,1.2614 3.576172,4.29102 1.202445,2.47498 2.079575,4.49401 1.949219,4.49023 -0.130352,-0.005 -2.677871,-1.40987 -5.662109,-3.12109 -5.417246,-3.10636 -5.422024,-3.11335 -3,-4.45508 1.393085,-0.77173 2.355205,-1.21124 3.136718,-1.20508 z m -6.210937,3.75 4.777343,2.77149 c 2.627963,1.52364 5.681939,3.44453 6.785157,4.26953 1.621394,1.21251 16.184237,21.11185 18.794921,25.68164 1.46154,2.55829 -1.395333,1.74756 -14.687499,-4.16797 -16.336736,-7.27045 -15.635022,-6.42853 -15.654297,-18.7832 z m 163.500001,0.0469 -2.5,1.97461 c -2.73286,2.15833 -4,2.51255 -4,1.11718 0,-0.4962 1.4625,-1.39409 3.25,-1.99609 z m -127.95899,0.0449 c 0.28776,-0.0207 1.30503,1.60657 2.59961,4.5332 1.11502,2.52072 1.77483,4.83455 1.4668,5.14258 -0.30801,0.30799 -0.86132,-0.29276 -1.23047,-1.33398 -0.36914,-1.04123 -1.25692,-3.35505 -1.97265,-5.14258 -0.86908,-2.17044 -1.0871,-3.18315 -0.86329,-3.19922 z m 131.07422,0.97461 c 0.0667,0.0237 0.11033,0.0782 0.12696,0.16797 0.13301,0.71849 -0.092,7.33143 -0.5,14.69531 l -0.74219,13.38867 -3.31055,-10.125 -3.31055,-10.12695 3.81055,-4.56836 c 1.83395,-2.19911 3.45896,-3.59757 3.92578,-3.43164 z m -11.88086,2.02539 c 0.75544,0 1.26563,0.31702 1.26563,0.94922 0,0.55 -1.2375,0.99193 -2.75,0.98437 -2.14294,-0.0119 -2.41887,-0.22899 -1.25,-0.98437 0.97827,-0.6322 1.97894,-0.94922 2.73437,-0.94922 z m 7.24024,0.11133 c 0.0433,0.0953 -0.4298,0.62827 -1.37891,1.69531 -2.03808,2.29126 -2.5957,2.58856 -2.5957,1.38281 0,-0.41767 1.0125,-1.38041 2.25,-2.14062 1.121,-0.68863 1.68133,-1.03277 1.72461,-0.9375 z m -33.28321,0.87304 c 1.20505,-0.0195 2.48708,0.44463 2.84961,1.03126 1.06597,1.72473 0.13119,1.86666 -2.54296,0.38671 -2.40946,-1.33349 -2.41955,-1.38395 -0.30665,-1.41797 z m 9.08985,1.04102 4.71875,0.0762 -3.5,1.34766 c -4.56729,1.75888 -4.68639,1.75888 -5.36133,0 -0.46377,-1.20847 0.34069,-1.48506 4.14258,-1.42383 z m 10.21875,0.0644 c 0.94548,0 0.76064,0.31766 -0.5,0.85938 -1.1,0.47267 -2.675,0.85937 -3.5,0.85937 -0.94548,0 -0.76064,-0.31765 0.5,-0.85937 1.1,-0.47271 2.675,-0.85938 3.5,-0.85938 z m -41.17578,0.22852 c 2.85383,0.0933 1.31315,2.44208 -3.39649,10.58398 -6.9999,12.10126 -6.376,12.00906 -9.80859,1.46875 -3.29498,-10.11772 -3.74427,-9.34854 6.47461,-11.11328 3.22742,-0.55736 5.43327,-0.98186 6.73047,-0.93945 z m 19.77734,0.37305 3.11133,1.60937 c 2.3422,1.21119 2.97973,2.10806 2.58203,3.62891 -0.61538,2.35317 -0.91091,2.47149 -1.91406,0.76953 -0.40522,-0.6875 -1.42091,-2.32055 -2.25781,-3.62891 z m -1.70117,1.09961 c 0.6251,-7.4e-4 1.67668,1.3821 3.43945,3.92578 l 2.67188,3.85742 -4.04297,10.9375 -4.04492,10.9375 0.53125,-7 c 0.2919,-3.84998 0.53295,-10.73863 0.53711,-15.30859 0.004,-5.05838 0.10449,-7.34867 0.9082,-7.34961 z m 29.30078,0.26953 c 0.15495,0.004 0.24849,0.0171 0.27149,0.041 0.18333,0.19102 -2.71869,4.51756 -6.44922,9.61524 l -6.78321,9.26953 -3.24804,-8.05664 c -1.78632,-4.43146 -3.07706,-8.20077 -2.86914,-8.375 0.56734,-0.47502 16.75385,-2.55213 19.07812,-2.49414 z m 2.62891,0.38086 c 0.0443,-0.0137 0.0795,-0.0126 0.10351,0.004 0.0274,0.0189 0.0409,0.0583 0.0391,0.11914 -0.0148,0.48666 -1.25232,2.25241 -2.75,3.92383 -3.01634,3.36628 -2.7497,2.50767 0.59765,-1.92383 0.9176,-1.21477 1.69985,-2.02738 2.00977,-2.12304 z M 90.191406,129.5625 c 0.100403,-0.0265 0.269398,-0.0206 0.507813,0.0176 1.649998,0.26434 5.024999,0.75416 7.5,1.08789 8.907541,1.20162 10.103871,1.64479 11.031251,4.08398 0.50158,1.31929 0.65241,3.07841 0.33398,3.90821 -0.74533,1.9423 -0.21981,2.12524 -11.865231,-4.16211 -5.563006,-3.00347 -8.210635,-4.75036 -7.507813,-4.93555 z m -8.103515,0.084 c -0.515088,0.0541 -2.741796,1.9075 -5.388672,4.52149 -3.024998,2.98741 -5.5,5.8816 -5.5,6.43164 0,0.55 2.475002,-1.44423 5.5,-4.43164 3.025001,-2.98742 5.5,-5.88165 5.5,-6.43164 0,-0.0688 -0.03774,-0.0976 -0.111328,-0.0899 z m 77.083989,1.25977 c 0.0499,-0.006 0.0852,0.004 0.10742,0.0293 0.35579,0.40323 2.05108,4.66991 3.76562,9.48242 l 3.11719,8.75 -9.73242,-0.13672 c -15.84082,-0.22171 -15.48896,0.35629 -6.01563,-9.91602 4.23841,-4.59584 8.00972,-8.11887 8.75782,-8.20898 z m -72.357427,0.25195 c 0.690113,-0.0786 4.95268,1.77556 10.347656,4.53516 l 11.210941,5.73437 -0.66797,3.6211 c -0.36734,1.99098 -1.61039,4.63165 -2.76172,5.86914 -1.15134,1.23749 -2.35136,2.24193 -2.66797,2.23437 -0.49562,-0.0129 -13.288534,-18.00019 -15.531249,-21.83789 -0.05441,-0.0931 -0.02827,-0.14502 0.07031,-0.15625 z m 140.474607,0.90625 c 0.84294,0.16007 1.89574,2.82763 4.23242,10.23438 1.96283,6.22167 3.4805,11.38177 3.37305,11.46679 -0.36125,0.28543 -20.81798,-5.38828 -21.35156,-5.92187 -0.29022,-0.29023 2.27969,-3.59826 5.71289,-7.35156 3.43321,-3.75334 6.79593,-7.42856 7.4707,-8.16602 0.18538,-0.2026 0.36798,-0.29865 0.5625,-0.26172 z m -23.6914,1.36328 c 0.55993,0.0345 1.65738,1.82907 2.95703,4.99024 0.84796,2.06249 1.42476,3.75 1.28125,3.75 -0.87247,0 -4.63672,-6.21902 -4.63672,-7.66016 0,-0.74876 0.14392,-1.09577 0.39844,-1.08008 z m -1.46875,4.57618 c 1.76872,0.15928 8.21791,10.15752 12.06836,19.03515 2.08267,4.80185 5.16705,11.97561 6.85546,15.94336 3.55753,8.36005 4.87093,8.47698 -11.68945,-1.03711 -5.68502,-3.26608 -10.54901,-5.72645 -10.80859,-5.46679 -0.25957,0.25957 5.23223,3.73619 12.20508,7.7246 8.46734,4.84324 12.2233,7.49865 11.30859,7.99415 -5.57201,3.01836 -6.96933,2.41861 -16.34766,-7.00586 -4.93853,-4.96283 -8.53853,-9.03359 -8,-9.04493 0.53853,-0.0122 -0.0939,-0.84788 -1.40429,-1.85546 l -2.38282,-1.83204 8.20313,-6.24218 c 4.51087,-3.43382 7.99011,-6.45513 7.73242,-6.71289 -0.25768,-0.25769 -3.72716,2.0485 -7.70898,5.125 -9.50123,7.34101 -9.46739,8.607 -0.42188,-16.34571 0.0747,-0.2062 0.20765,-0.29577 0.39063,-0.27929 z m -91.22852,4.46484 c 0.17846,0.0346 0.28736,0.16814 0.2832,0.39063 -0.0349,1.84515 -1.95249,3.90717 -1.96875,2.11718 -0.008,-0.93006 0.43438,-1.96881 0.98438,-2.30859 0.275,-0.17002 0.52271,-0.23382 0.70117,-0.19922 z m -38.457031,3.12305 c 0.461541,-0.46156 25.983181,10.63283 26.75586,11.63086 0.275002,0.3552 1.152031,0.85469 1.949221,1.11132 1.17163,0.37705 1.12373,0.59202 -0.25,1.11914 -0.977859,0.37527 -1.699221,0.17583 -1.699221,-0.4707 0,-0.6661 -0.712509,-0.48986 -1.75,0.4336 -0.962499,0.85666 -4.194317,2.27574 -7.181641,3.15429 -2.987327,0.87855 -5.563639,1.59766 -5.724609,1.59766 -0.632054,0 -12.48234,-18.19346 -12.09961,-18.57617 z m -2.240234,0.0762 5.996094,9 c 7.21748,10.83383 7.157862,9.76881 0.662109,11.81641 -7.127229,2.24665 -8.028325,2.17756 -7.292969,-0.56641 0.331646,-1.23749 0.610448,-6.29999 0.619141,-11.25 z m 41.650395,2.80859 c 0.83612,-0.0733 1.20261,2.04086 1.27539,6.44141 0.0721,4.35802 -0.0361,4.44233 -4.63672,3.55078 l -2.20899,-0.42969 2.6836,-5.46875 c 1.30259,-2.65594 2.2364,-4.03674 2.88672,-4.09375 z m 101.5625,1.53711 c 2.28871,0.18216 20.52839,4.97173 21.5957,5.72461 0.17143,0.12095 -1.80858,5.21647 -4.40039,11.32422 -2.59181,6.10772 -4.98285,11.09936 -5.3125,11.0918 -0.58316,-0.0125 -12.15803,-26.86324 -12.11914,-28.11328 9.7e-4,-0.0314 0.0837,-0.0395 0.23633,-0.0274 z m -108.16407,2.7793 c 0.31793,0.057 0.43114,0.62723 0.21875,1.73828 -0.24214,1.26667 -1.05403,2.30273 -1.80273,2.30273 -0.99464,0 -1.10333,-0.47847 -0.4082,-1.77734 0.83609,-1.56226 1.58342,-2.337 1.99218,-2.26367 z m 130.44727,5.875 0.29297,7.75 c 0.16063,4.26251 0.16063,11.15037 0,15.30664 l -0.29297,7.55664 -4.25,-3.26953 c -2.3375,-1.79898 -4.25,-3.73562 -4.25,-4.30274 0,-0.56711 1.9125,-5.98443 4.25,-12.0371 z m -127.99805,1.14453 c 0.34353,0.0117 0.74957,0.0623 1.22071,0.15234 2.44377,0.46715 2.52044,0.5991 0.75,1.29102 -2.90091,1.13371 -3.47266,1.06051 -3.47266,-0.44922 0,-0.7067 0.47137,-1.02911 1.50195,-0.99414 z m -9.203123,1.43359 c 0.07003,-0.004 0.12259,0.0113 0.158203,0.0469 0.284901,0.28494 -0.938014,1.55564 -2.71875,2.82617 l -3.238281,2.31055 2.720703,-2.82813 c 1.308852,-1.36096 2.58794,-2.32613 3.078125,-2.35547 z m 4.300783,0.22657 c 0.29792,-0.0157 0.11306,0.38838 -0.3418,1.20117 -0.54221,0.96888 -2.45384,2.37842 -4.248046,3.13281 -4.054461,1.70479 -2.775179,-0.19261 2.035156,-3.01758 1.47573,-0.86668 2.25677,-1.30068 2.55469,-1.3164 z m 7.3457,0.76172 c 0.27841,-0.008 0.52776,0.0727 0.72266,0.26757 0.21003,0.21003 -0.51393,1.45801 -1.60938,2.77344 -1.96128,2.35514 -1.99251,2.36022 -2.02539,0.25 -0.0237,-1.52708 1.70566,-3.25467 2.91211,-3.29101 z m 2.55469,0.74609 0.29492,5.9668 c 0.16194,3.28199 -0.0631,8.0702 -0.5,10.64062 l -0.79492,4.67383 -1.72461,-7.62305 c -1.72087,-7.60796 -1.71993,-7.62781 0.5,-10.64062 z m -20.033204,0.26758 c 0.504558,0.002 0.05546,0.73301 -1.47461,2.66406 -2.834763,3.5777 -3.138054,3.70958 -4.791015,2.05664 -1.765618,-1.76564 -1.48295,-2.51236 1.207031,-3.1875 1.323904,-0.33226 3.231384,-0.92146 4.240234,-1.30859 0.375505,-0.1441 0.650173,-0.22523 0.81836,-0.22461 z m 12.132814,1.43359 c 0.46779,0.0344 0.87023,0.56632 1.24023,1.55664 0.74703,1.99948 0.2648,3.3578 -2.71679,7.66797 -5.431016,7.85106 -6.572883,7.13516 -2.96094,-1.85547 2.05615,-5.11804 3.40835,-7.4448 4.4375,-7.36914 z m 88.72851,0.82617 c 0.15106,-0.15107 4.67816,4.14419 10.06055,9.54688 l 9.78516,9.82422 -8.55078,2.14453 c -4.70303,1.17955 -8.94783,2.14453 -9.4336,2.14453 -0.77219,0 -2.57718,-22.94431 -1.86133,-23.66016 z m -110.369137,0.82813 c 0.798736,0.0702 1.071401,0.65161 1.808594,1.83203 1.362841,2.18226 0.592529,2.30453 -7.767578,1.23047 l -3.5,-0.44922 4.5,-1.375 c 2.835793,-0.86659 4.160249,-1.30844 4.958984,-1.23828 z m 17.246097,0.004 c 0.41856,-0.18024 0.10878,1.51849 -0.687503,3.77539 -2.605009,7.38339 -2.688526,7.43901 -6.785156,4.33008 -4.681297,-3.55264 -4.688458,-3.52574 1.490234,-5.83008 2.872116,-1.07111 5.563859,-2.0951 5.982425,-2.27539 z m -29.572269,4.17383 6.433594,0.38477 c 3.538707,0.21165 7.025333,0.4723 7.748047,0.57812 0.771817,0.11286 -0.08874,1.54562 -2.083984,3.47461 l -3.396485,3.28516 -4.351562,-3.86133 z m 36.240239,0.4668 1.11523,4.34375 c 0.6139,2.38926 1.71688,6.47728 2.45117,9.08398 1.49411,5.30381 1.40815,5.30234 -5.21484,-0.0605 -2.35147,-1.90409 -4.50889,-3.22752 -4.79492,-2.94141 -0.28602,0.28603 1.80941,2.37393 4.65625,4.64063 l 5.17578,4.12109 h -8.13086 c -4.471846,0 -8.130861,-0.21017 -8.130861,-0.4668 0,-0.25655 2.895679,-4.57355 6.435551,-9.59375 z m -37.373051,0.48242 4.728515,3.99023 4.726563,3.99024 -4.070313,4.86328 c -5.101088,6.09283 -4.686991,6.41826 -5.064453,-3.99219 z m 16.71289,2.37891 c 1.037661,-0.13813 1.59155,1.96259 2.865235,7.38281 1.917505,8.16004 1.683444,8.31508 -3.931641,2.59375 l -4.269531,-4.35156 2.685547,-3.19141 c 1.230375,-1.46222 2.027794,-2.35072 2.65039,-2.43359 z m 3.435547,0.0918 c 0.529875,0.0377 1.5415,0.84663 3.140625,2.1875 l 3.291016,2.75977 -1.890625,4.8125 -1.890625,4.8125 -1.769531,-7.2168 c -1.308185,-5.33815 -1.763984,-7.41831 -0.88086,-7.35547 z m 7.986328,6.57227 c 0.222364,0.0463 0.365235,0.23555 0.365235,0.54492 0,0.55 -0.45,1.27741 -1,1.61719 -0.549997,0.33993 -1,0.16718 -1,-0.38281 0,-0.55 0.450003,-1.27741 1,-1.61719 0.1375,-0.085 0.26914,-0.13707 0.388672,-0.16016 0.08965,-0.0173 0.171972,-0.0174 0.246093,-0.002 z M 80.056641,181.84 c 1.280974,-0.0354 2.72627,1.25891 5.642578,3.84766 v 0.004 l 5,4.43945 -9.378907,0.0176 -9.378906,0.0195 3.462891,-4.19531 c 2.255558,-2.7319 3.37137,-4.09736 4.652344,-4.13282 z m 142.537109,1.83985 c 0.81511,-0.006 0.42787,0.78492 -0.55469,2.9414 -1.38137,3.03175 -1.99634,3.13605 -4.1875,0.71485 -1.56938,-1.73416 -1.47065,-1.88843 1.84571,-2.90625 1.48535,-0.45587 2.40741,-0.74617 2.89648,-0.75 z m 3.78125,0.33984 c 1.03388,0.12299 2.53845,1.30148 5.32422,3.63086 v 0.002 l 3,2.50782 -6.23438,0.004 -6.23242,0.004 1.64453,-3.44922 c 0.90162,-1.89071 1.46417,-2.82221 2.49805,-2.69922 z m -11.8418,2.03906 2.05664,2.05469 2.05469,2.05469 -9.47265,-0.0918 -9.47266,-0.0898 7.41797,-1.96485 z"
         style="fill:#000000;stroke-width:1.00000012"
         transform="matrix(0.26458333,0,0,0.26458333,0,244.08331)"
         id="path4535-3"
         inkscape:connector-curvature="0" />
    </g>
    <g
       transform="translate(-1.3161308,-0.52753217)"
       id="layer1-6"
       inkscape:label="Capa 1">
      <path
         d="m 214.99805,18.753906 c -1.64753,0.0467 -2.78907,0.68153 -2.78907,2.013672 0,1.540006 -0.12646,1.540006 -1.82812,0 -1.28581,-1.163641 -3.6609,-1.65625 -8,-1.65625 h -6.17188 v 36.703125 36.703125 l 3.19727,3.296875 c 3.72527,3.843515 12.80273,5.008167 12.80273,1.642578 0,-1.539968 0.12842,-1.539968 1.83008,0 1.28581,1.163679 3.6609,1.654297 8,1.654297 h 6.16992 V 62.904297 26.697266 l -3.70312,-3.792969 c -2.61114,-2.674039 -6.76194,-4.228229 -9.50781,-4.150391 z m -48.94532,0.244141 c -4.07678,0.147236 -3.86447,3.705522 -6.88476,37.464844 l -3.20313,35.800781 3.36133,3.46875 c 2.99505,3.090331 3.85572,3.436505 7.87305,3.173828 l 4.50976,-0.294922 0.59961,-4.5 c 0.3299,-2.474986 0.66738,-3.845678 0.75,-3.046875 0.36886,3.566967 6.40906,8.046875 10.84766,8.046875 5.24373,0 5.05867,4.355872 1.625,-38.46875 l -2.72266,-33.96875 -3.41601,-3.78125 c -3.26656,-3.615496 -3.69162,-3.78125 -9.74024,-3.78125 -1.49001,0 -2.65881,-0.147259 -3.59961,-0.113281 z m -24.24218,0.03516 -7.05078,0.289063 -7.05079,0.289062 -0.5,4 -0.5,4 -3.41601,-4.25 -3.41797,-4.25 h -6.83203 -6.83399 v 36.703125 36.703125 l 3.19727,3.296875 c 4.13309,4.264283 12.80273,4.991433 12.80273,1.074219 V 94.66602 l 1.55664,2.222656 c 2.21915,3.168334 10.97669,3.268544 11.97071,0.136719 l 0.66406,-2.087891 1.46094,2.087891 c 1.10909,1.583433 2.53295,2.085937 5.90429,2.085937 h 4.44336 V 63.052734 26.994141 l -3.19921,-3.980469 z m -123.601566,0.07813 v 37.177734 37.177735 l 3.25,2.78125 c 4.315945,3.694715 11.75,4.131014 11.75,0.689453 v -2.173828 l 2.314454,2.173828 c 1.696469,1.593751 3.565539,2.173828 7,2.173828 4.144095,0 4.685546,-0.250767 4.685546,-2.173828 v -2.173828 l 2.386719,2.240234 c 1.800669,1.69149 3.3338,2.165024 6.25,1.925782 l 3.863281,-0.31836 0.263672,-35.732422 0.261719,-35.732422 -3.628906,-4.017578 C 53.049103,19.192511 52.841921,19.111328 46.205078,19.111328 H 39.431641 L 38.75,22.746094 38.068359,26.380859 34.347656,22.746094 c -3.47054,-3.388838 -4.14077,-3.634766 -9.929687,-3.634766 z m 218.999996,0 v 37.177734 37.177735 l 3.25,2.78125 c 2.54101,2.175269 4.28621,2.793982 8,2.824219 l 4.75,0.03906 V 63.115234 27.117188 l -3.61523,-4.001954 c -3.17267,-3.511785 -4.15419,-4.003906 -8,-4.003906 z m 34.97266,0 c -10.14453,0 -11.23481,4.145413 -10.79102,41 l 0.31836,26.5 2.72657,4.636719 c 1.49904,2.549972 4.19904,5.581128 6,6.734375 v -0.002 c 4.18142,2.679149 9.0062,2.691209 13.72851,0.03711 12.0686,-6.782929 9.53035,-34.90625 -3.15039,-34.90625 h -3.80469 V 53.916016 44.71875 l 3.37305,3.269531 c 2.69953,2.616605 4.04689,3.205786 6.75,2.947266 l 3.37695,-0.324219 0.29883,-7.488281 c 0.55016,-13.795956 -7.45963,-24.011719 -18.82617,-24.011719 z m -194.361328,0.26171 c -2.401863,0.01351 -4.599735,0.684595 -6.304687,2.150391 L 68.708984,23.935547 68.417969,54.0625 c -0.33831,34.875969 -0.400909,34.608667 9.570312,41.996094 8.003728,5.929736 15.096258,5.051246 18.585938,-2.302735 C 98.542608,89.60779 99.033233,38.431904 97.152344,33.427734 94.068799,25.223816 85.025908,19.332504 77.820312,19.373047 Z m 194.744138,0.955078 c 5.17142,-0.257186 10.13458,5.157953 10.3418,13.695313 l 0.19531,8.08789 h -2.94531 -2.94727 V 35.3125 c 0,-7.244901 -0.97485,-9.201172 -4.59179,-9.201172 -3.29879,0 -3.40821,0.986216 -3.40821,31.046875 0,26.751836 0.0817,27.926225 1.97852,28.941406 4.05217,2.168655 6.02148,-1.754379 6.02148,-11.988281 v -9 h 3 3 l -0.006,7.75 c -0.007,9.462312 -1.38118,14.810512 -4.29296,16.69336 -4.97977,3.220042 -9.45523,2.735162 -13.20118,-1.429688 -3.17504,-3.530117 -3.08581,-59.406492 0.10157,-63.689453 2.00971,-2.700508 4.40326,-3.990519 6.7539,-4.107422 z M 79.511719,20.990234 c 2.582332,-3.92e-4 5.200142,0.857293 7.052734,2.574219 l 2.644531,2.451172 v 29.992187 c 0,29.678552 -0.02351,30.018699 -2.25,32.548829 C 82.709956,93.3851 74.005633,92.34974 71.435547,86.708984 70.55788,84.782748 70.208984,75.782593 70.208984,55.019531 V 26.021484 l 2.455078,-2.455078 c 1.717512,-1.71736 4.265325,-2.575779 6.847657,-2.576172 z m 91.605471,0.05859 c 3.9132,-0.102056 3.63824,1.463918 6.07422,33.0625 1.12359,14.574992 2.31505,28.862479 2.64648,31.75 0.58519,5.098054 0.52942,5.25 -1.90625,5.25 -3.05623,0 -3.72266,-1.546188 -3.72266,-8.646484 0,-7.040693 -1.2359,-9.353516 -5,-9.353516 -3.53401,0 -5,2.290925 -5,7.810547 0,2.167408 -0.28125,5.345675 -0.625,7.064453 -0.63423,3.171175 -5.38016,4.827907 -5.37109,1.875 0.002,-0.687496 1.35206,-16.062116 3,-34.166016 1.64794,-18.103897 2.99609,-33.291392 2.99609,-33.75 0,-0.458492 2.23,-0.833984 4.95508,-0.833984 0.7501,0 1.3941,-0.04792 1.95313,-0.0625 z m -126.810549,0.02344 c 0.564679,0.005 1.215699,0.03906 1.970703,0.03906 h 4.93164 v 35 35 h -2.353515 c -2.964442,0 -3.580557,-5.78084 -3.78125,-35.40039 -0.157985,-23.317115 -0.226321,-23.14175 -3.75586,9.90039 l -2.669921,25 h -3.46875 -3.470704 l -2.353515,-25.5 c -3.174622,-34.395248 -3.997659,-34.748637 -4.078125,-1.75 l -0.06836,27.75 h -2.5 -2.5 v -35 -35 h 4.433594 c 5.453851,0 4.835552,-2.139125 7.712891,26.720703 1.273251,12.770722 2.599587,22.895755 2.947265,22.5 0.347683,-0.395716 1.627852,-10.845698 2.845704,-23.220703 2.42818,-24.673512 2.20545,-26.074312 6.158203,-26.039062 z m 63.902339,0.03906 h 5 c 2.75,0 5,0.198761 5,0.441406 0,0.242684 1.12522,10.930223 2.5,23.75 1.3748,12.81978 2.49979,23.947413 2.5,24.726563 2.2e-4,0.780397 0.27764,1.13823 0.61719,0.798828 0.57309,-0.57309 5.29952,-42.448416 5.35742,-47.466797 0.0237,-2.057612 0.49606,-2.25 5.52539,-2.25 h 5.5 v 35 35 h -3 -3 V 63.445312 c 0,-15.21664 -0.27249,-27.393523 -0.60546,-27.060546 -0.43703,0.437026 -4.54747,35.597784 -6.36914,54.476562 -0.13606,1.410104 -7.0244,-0.06064 -7.0254,-1.5 -0.002,-3.010205 -5.02806,-51.696759 -5.44531,-52.75 -0.2179,-0.549997 -0.43118,11.487512 -0.47461,26.75 l -0.0801,27.75 h -3 -3 v -35 z m 90,0 h 5 c 4.08834,0 5.0048,0.319071 5.01954,1.75 0.0515,4.974501 4.83752,50.439099 5.36523,50.966797 0.33914,0.339175 0.61523,-11.382145 0.61523,-26.048828 V 21.111328 h 2.5 2.5 v 35 35 h -4.48046 c -5.46472,0 -4.78669,2.577281 -7.67774,-29.21289 -1.2361,-13.592278 -2.44731,-24.513689 -2.6914,-24.269532 -0.24412,0.24412 -0.34891,12.377203 -0.23243,26.962891 l 0.21094,26.519531 h -3.06445 -3.06446 v -35 z m 41,0 h 2.5 2.5 v 35 35 h -2.5 -2.5 v -35 z M 80.199219,25.716797 c -0.632115,-0.01115 -1.421194,0.508652 -2.40625,1.326172 -1.67853,1.393058 -2.504511,56.81582 -0.871094,58.449219 0.391918,0.390196 1.854417,0.578913 3.25,0.416015 l 2.537109,-0.296875 V 56.720703 c 0,-24.157943 -0.252213,-30.964095 -2.509765,-31.003906 z m 89.173831,5.394531 c -0.90181,0 -4.29792,35.972518 -3.51563,37.238281 0.61162,0.98967 6.09184,0.993023 6.70313,0.0039 0.2581,-0.4176 -0.15473,-8.405118 -0.91797,-17.75 -0.76325,-9.34492 -1.39769,-17.554692 -1.41016,-18.242188 -0.0124,-0.687496 -0.39909,-1.25 -0.85937,-1.25 z"
         style="fill:#4caf50;fill-opacity:1;stroke-width:1.00000012"
         transform="matrix(0.26458333,0,0,0.26458333,0,270.54165)"
         id="path4535"
         inkscape:connector-curvature="0" />
    </g>
  </g>
</svg>
